<svg width="20" height="20" viewBox="0 0 20 20" fill="none" xmlns="http://www.w3.org/2000/svg">
<g clip-path="url(#clip0_6_19)">
<path d="M9.99998 4.20001C11.416 4.20001 12.684 4.68801 13.684 5.64001L16.424 2.90001C14.76 1.35201 12.588 0.400009 9.99998 0.400009C6.24798 0.400009 3.00398 2.55201 1.42398 5.68801L4.61598 8.16401C5.37198 5.88801 7.49598 4.20001 9.99998 4.20001Z" fill="#EA4335"/>
<path d="M19.192 10.22C19.192 9.59201 19.132 8.98401 19.04 8.40001H10V12.008H15.176C14.944 13.192 14.272 14.2 13.264 14.88L16.356 17.28C18.16 15.608 19.192 13.136 19.192 10.22Z" fill="#4285F4"/>
<path d="M4.61199 11.836C4.41999 11.256 4.30799 10.64 4.30799 10C4.30799 9.36 4.41599 8.744 4.61199 8.164L1.41999 5.688C0.767994 6.984 0.399994 8.448 0.399994 10C0.399994 11.552 0.767994 13.016 1.42399 14.312L4.61199 11.836Z" fill="#FBBC05"/>
<path d="M9.99998 19.6C12.592 19.6 14.772 18.748 16.356 17.276L13.264 14.876C12.404 15.456 11.296 15.796 9.99998 15.796C7.49598 15.796 5.37198 14.108 4.61198 11.832L1.41998 14.308C3.00398 17.448 6.24798 19.6 9.99998 19.6Z" fill="#34A853"/>
</g>
<defs>
<clipPath id="clip0_6_19">
<rect width="19.2" height="19.2" fill="white" transform="translate(0.399994 0.400009)"/>
</clipPath>
</defs>
</svg>
